<?xml version="1.0" encoding="UTF-8"?>
<svg id="Layer_1" data-name="Layer 1" xmlns="http://www.w3.org/2000/svg" viewBox="0 0 1143.47 670.74">
  <defs>
    <style>
      .cls-1, .cls-2 {
        fill: #ffb01e;
      }

      .cls-2, .cls-3 {
        font-family: MS-Gothic, 'MS Gothic';
        font-size: 300px;
      }

      .cls-4, .cls-3 {
        fill: #e9300b;
      }
    </style>
  </defs>
  <path class="cls-1" d="m414.1,189.31l19.5-140.5c1-7.5,4.5-10.5,12.5-10.5h16c7,0,11.5,4,10,13l-92.64,565.65c-1,7-4,10.5-12,10.5h-16.57c-7,0-10.93-4-9.43-13l53.14-298.15,2-10.5-62-254.5c-1.5-9,3.5-13,10-13h16c8,0,11,3,12,10.5l33,140.5,5.71,25.61,2.79-25.61Z"/>
  <path class="cls-1" d="m536.4,48.81c0-7,4-10.5,11-10.5h16.5c7,0,11,3.5,11,10.5v208.5c0,21.5,5.5,28,22,28s26.5-8.5,26.5-29.5V48.81c0-7,3.5-10.5,10.5-10.5h17c7,0,10.5,3.5,10.5,10.5v257c0,6.5-3.5,10.5-10.5,10.5h-17c-7,0-10.5-4-10.5-10.5v-6.5c-13,12.5-30.5,19.5-46,19.5-22,0-41-14-41-46V48.81Z"/>
  <path class="cls-1" d="m1096.39,181.31c0,7.5-4,11.5-11.5,11.5h-75v66c0,21,7.5,28,24,28s24.5-7,24.5-28v-18c0-7,3.5-10.5,10.5-10.5h17c7,0,10.5,3.5,10.5,10.5v18.5c0,38.5-14,59.5-62.5,59.5s-62.5-21-62.5-59.5V95.31c0-38.5,14-59.5,62.5-59.5s62.5,21,62.5,59.5v86Zm-86.5-20h48.5v-65.5c0-21.5-7.5-28-24.5-28s-24,6.5-24,28v65.5Z"/>
  <path class="cls-1" d="m882.53,35.81c-20.5,0-37.5,7.5-51.5,21-7-14.5-20.5-21-35.5-21s-33,7-45.5,19.5v-6.5c0-7-4-10.5-11-10.5h-16.5c-7,0-11,3.5-11,10.5v257c0,6.5,4,10.5,11,10.5h7.2c.09-2.24.35-4.56.77-6.94,2.41-13.97,9.47-25.61,19.52-33.4V98.81c0-21,9-30,26-30s22.5,7,22.5,28v171.84c14.35,6.3,21.54,21.26,18.18,40.73-.42,2.38-1,4.69-1.7,6.94h11.02c7,0,10.5-4,10.5-10.5V98.81c0-22,10-30,26-30,17,0,22.5,7,22.5,28v209c0,6.5,4,10.5,11,10.5h16.5c7,0,11-4,11-10.5V81.81c0-32-19-46-41-46Z"/>
  <path class="cls-4" d="m444.32,466.35h2.5l74-110.5c3-4,6.5-6.5,12-6.5h21.5c8.5,0,9,8.5,5,14.5l-85.5,124,40,125c1.5,6-1.5,14.5-10.5,14.5h-17.5c-5.5,0-8.5-2.5-10-7l-36-114h-2.5l-19.5,110c-1.5,7-5.5,11-12.5,11h-16.5c-7,0-10.5-4-9.5-11L472.29,48.39c1.5-7,6-10.5,13-10.5h16.5c7,0,10,3.5,8.5,10.5l-65.97,417.96Z"/>
  <path class="cls-4" d="m663.32,616.85c-1,6.5-5,10.5-12,10.5h-17c-7,0-10.5-4-9-10.5l1-6.5c-15,12.5-33.5,19.5-49,19.5-22,0-39-14-33-46l34-191c5.5-32,27-46,49-46,15.5,0,31.5,7,42,19.5l1-6.5c1.5-7,6-10.5,13-10.5h16.5c7,0,10.5,3.5,9,10.5l-45.5,257Zm-78-48.5c-4,21.5.5,28,17.5,28s27.5-8.5,31.5-29.5l27.5-157c3.5-21-4-30-21-30s-23.5,7-27.5,28l-28,160.5Z"/>
  <path class="cls-4" d="m741.81,616.35c-1.5,7-5.5,11-12.5,11h-16.5c-7,0-10.5-4-9.5-11l45.5-256.5c1.5-7,5.5-10.5,12.5-10.5h17c7,0,10,3.5,8.5,10.5l-45,256.5Zm36.81-331.84c14,0,22,10,19.5,24.5-2.5,14-14,24-28.5,24s-22-10-19.5-24c2.5-14.5,14-24.5,28.5-24.5Z"/>
  <text class="cls-2" transform="translate(11.37 283.68)"><tspan x="0" y="0">夢</tspan></text>
  <text class="cls-3" transform="translate(0 594.41)"><tspan x="0" y="0">会</tspan></text>
</svg>